<svg width="512" height="512" viewBox="0 0 512 512" xmlns="http://www.w3.org/2000/svg"><path style="fill:#020202;stroke:none;stroke-width:.997689" d="M241.318 40.188c0 40.802-9.906 98.592 38.914 116.023 24.16 8.626 55.473 3.69 80.82 3.69 0 7.454-1.288 16.153 2.411 22.944 6.692 12.283 24.362 13.92 33.115 2.978 8.19-10.237 7.76-45.746 1.167-56.848-4.509-7.595-12.531-13.751-18.733-19.952l-72.838-72.825c-10.542-10.54-22.93-28.465-36.918-34.153-7.07-2.875-15.475-1.76-22.949-1.76H95.643c-24.805 0-51.292-3.416-71.84 13.431C-7.43 39.322 1.852 87.2 1.852 122.99v311.25c0 15.903-.622 31.473 7.297 45.89 22.135 40.298 72.994 30.925 111.438 30.925 13.35 0 34.495 4.213 44.795-6.09 11.18-11.182 4.61-30.766-10.87-33.485-24.737-4.347-53.685-.329-78.825-.329-12.736 0-26.347.977-32.394-12.968-3.576-8.246-1.53-20.101-1.53-28.93V74.106c0-10.798-1.407-21.845 8.022-29.397 11.981-9.597 38.23-4.522 52.842-4.522h138.691m40.91 28.93 49.888 50.878c-15.725 0-44.116 5.83-50.088-13.966-1.852-6.138-.799-13.603-.799-19.952 0-5.338-1.082-12.002.998-16.96M97.638 192.342c-18.149 3.937-21.9 30.332-3.99 37.626 14.062 5.727 35.833 1.76 50.886 1.76H258.28c15.093 0 40.605 4.869 53.865-3.217 16.116-9.825 8.618-34.364-8.965-36.503-13.912-1.692-28.89-.184-42.905-.184H123.581c-8.314 0-17.794-1.25-25.943.518m336.251 18.915c-9.076 1.422-14.789 8.323-20.953 14.486l-33.924 33.918-95.787 95.77c-17.554 17.55-39.06 34.51-50.63 56.863-8.476 16.38-11.44 33.962-15.024 51.875-1.725 8.623-4.88 18.11-4.849 26.935.04 10.992 9.574 20.333 20.614 19.849 8.933-.392 18.17-3.39 26.94-5.081 19.374-3.736 38.652-6.948 55.876-17.215 18.344-10.933 32.932-28.484 47.893-43.442l74.833-74.82 47.894-47.885c7.881-7.88 18.516-15.834 23.57-25.938 6.033-12.065-1.252-21.566-9.601-29.928l-40.91-40.901c-6.969-6.968-14.912-16.214-25.942-14.486m-175.608 253.91c4.718-36.53 26.884-55.81 51.884-80.806l75.831-75.817 34.922-34.916c3.595-3.595 8.87-11.353 13.97-12.624 3.23-.805 5.963 2.671 7.981 4.648 5.987 5.86 13.95 11.956 18.582 18.95 3.582 5.407-4.183 10.543-7.606 13.966l-35.92 35.913-85.809 85.794c-21.964 21.96-40.711 43.466-73.835 44.892M97.638 272.149c-18.816 4.081-21.62 31.34-2.993 38.002 12.097 4.325 29.156 1.384 41.907 1.384h89.8c13.09 0 34.156 3.984 45.897-2.41 16.134-8.788 12.277-33.957-5.986-37.165-10.752-1.89-23.014-.329-33.925-.329h-66.85c-21.28 0-47.071-3.99-67.85.518m0 79.808c-18.15 3.937-21.9 30.332-3.99 37.626 8.615 3.51 19.8 1.76 28.935 1.76h46.895c7.626 0 16.602 1.282 23.947-1.055 17.4-5.538 18.424-31.233.998-37.464-9.217-3.295-21.257-1.385-30.931-1.385-20.661 0-45.676-3.86-65.854.518z"/></svg>